<?xml version="1.0" encoding="utf-8"?>
<!-- Generator: Adobe Illustrator 15.1.0, SVG Export Plug-In . SVG Version: 6.00 Build 0)  -->
<!DOCTYPE svg PUBLIC "-//W3C//DTD SVG 1.1//EN" "http://www.w3.org/Graphics/SVG/1.1/DTD/svg11.dtd">
<svg version="1.1" id="Layer_1" xmlns="http://www.w3.org/2000/svg" xmlns:xlink="http://www.w3.org/1999/xlink" x="0px" y="0px"
	 width="113.386px" height="124.725px" viewBox="0 0 113.386 124.725" enable-background="new 0 0 113.386 124.725"
	 xml:space="preserve">
<g>
	<g>
		<path fill="#FFFFFF" d="M75.082,17.655L70.489,10l4.593-7.653l-7.652,4.591l-7.653-4.591L64.368,10l-4.592,7.654l7.653-4.594
			L75.082,17.655z M81.034,37.508l-2.979-5.845l2.979-5.848l-5.952,2.924l-5.953-2.924l2.978,5.848l-2.978,5.845l5.953-2.923
			L81.034,37.508z M59.518,52.562l2.975,5.952l-5.948-2.976l-5.954,2.976l2.975-5.952l-2.975-5.954l5.954,2.977l5.948-2.977
			L59.518,52.562z M84.344,97.021c1.26-1.602,2.064-3.164,1.764-6.225c-0.551-5.636-4.039-12.503-6.276-18.088
			c-4.455-11.109-9.707-22.63-15.31-33.062c-4.285-7.977-8.949-18.445-20.605-17.891c-12.938,0.617-10.932,18.494-15.702,28.589
			c-0.726,1.536-2.028,1.769-2.353,3.89c2.715,1.355,4.776-0.974,6.082-2.528c1.441-1.717,2.681-4.001,3.533-6.027
			c1.948-4.636,2.803-10.282,5.297-13.808c1.682,1.995-1.092,6.745,0.981,8.557c2.05-0.499,1.867-3.209,3.337-4.278
			c1.35,2.432,0.244,5.414-0.391,7.583C42.707,50.545,39,56.624,36.069,63.181c-1.82,4.065-3.795,8.523-5.692,13.226
			c-1.748,4.323-4.185,9.042-4.711,14.005c-0.328,3.062,0.623,5.241,2.159,7.001c7.103,8.146,30.578,9.979,44.744,6.028
			C77.421,102.087,81.948,100.06,84.344,97.021 M104.754,93.909c-2.664-7.205-10.523-10.714-17.859-13.612
			c1.9,5.762,4.73,11.596,1.965,17.114c-7.895,15.746-52.193,16.021-63.979,2.918c-1.299-1.446-2.817-3.95-3.14-6.227
			c-0.717-5.063,1.83-9.437,2.945-14.002c-0.168-0.037-0.187,0.076-0.197,0.194c-6.803,2.777-14.814,6.339-17.662,13.029
			c-1.165,2.73-1.309,6.068,0,9.141c2.482,5.825,9.988,10.351,17.269,13.028c22.025,8.104,58.824,6.147,74.578-6.029
			C102.717,106.341,107.299,100.799,104.754,93.909"/>
	</g>
</g>
</svg>
